M48
; DRILL file {KiCad 9.0.5} date 2026-03-12T17:23:23+0100
; FORMAT={-:-/ absolute / metric / decimal}
; #@! TF.CreationDate,2026-03-12T17:23:23+01:00
; #@! TF.GenerationSoftware,Kicad,Pcbnew,9.0.5
; #@! TF.FileFunction,Plated,1,2,PTH
FMAT,2
METRIC
; #@! TA.AperFunction,Plated,PTH,ViaDrill
T1C0.400
; #@! TA.AperFunction,Plated,PTH,ComponentDrill
T2C0.762
; #@! TA.AperFunction,Plated,PTH,ComponentDrill
T3C0.800
; #@! TA.AperFunction,Plated,PTH,ComponentDrill
T4C0.900
; #@! TA.AperFunction,Plated,PTH,ComponentDrill
T5C1.000
; #@! TA.AperFunction,Plated,PTH,ComponentDrill
T6C3.200
%
G90
G05
T1
X90.185Y-72.755
X94.53Y-59.011
X97.654Y-61.503
X98.006Y-90.366
X98.02Y-85.874
X98.129Y-57.912
X99.268Y-77.358
X99.646Y-86.085
X104.606Y-94.97
X104.733Y-80.584
X106.426Y-53.235
X106.471Y-98.103
X107.163Y-100.433
X108.809Y-99.181
X110.531Y-74.353
X111.509Y-72.3
X114.212Y-96.14
X115.314Y-102.893
T2
X96.012Y-43.688
X96.012Y-54.989
X97.282Y-30.734
X98.552Y-43.688
X98.552Y-54.989
X99.822Y-30.734
X101.092Y-43.688
X101.092Y-54.989
X102.362Y-30.734
T3
X84.074Y-45.72
X84.074Y-58.42
X91.694Y-68.279
X91.694Y-73.279
X91.694Y-76.414
X91.694Y-81.414
X91.694Y-84.074
X91.694Y-89.074
X95.504Y-68.834
X95.504Y-71.374
X95.504Y-73.914
X95.504Y-76.454
X95.504Y-78.994
X95.504Y-81.534
X95.504Y-84.074
X95.504Y-86.614
X96.306Y-90.424
X101.306Y-90.424
X103.124Y-68.834
X103.124Y-71.374
X103.124Y-73.914
X103.124Y-76.454
X103.124Y-78.994
X103.124Y-81.534
X103.124Y-84.074
X103.124Y-86.614
T4
X85.852Y-31.75
X88.392Y-31.75
T5
X67.056Y-51.562
X67.056Y-54.102
X67.056Y-56.642
X67.056Y-59.182
X68.707Y-77.579
X68.707Y-80.349
X68.707Y-83.119
X68.707Y-85.889
X69.596Y-51.562
X69.596Y-54.102
X69.596Y-56.642
X69.596Y-59.182
X71.547Y-76.194
X71.547Y-78.964
X71.547Y-81.734
X71.547Y-84.504
X71.547Y-87.274
X80.01Y-75.184
X80.01Y-77.724
X80.01Y-80.264
X80.01Y-82.804
X80.01Y-85.344
X82.55Y-77.724
X82.55Y-80.264
X82.55Y-82.804
X85.09Y-75.2
X85.09Y-77.74
X85.09Y-80.28
X85.09Y-82.82
X85.09Y-85.36
X90.17Y-101.854
X90.17Y-104.394
X92.71Y-101.854
X92.71Y-104.394
X95.25Y-101.854
X95.25Y-104.394
X97.79Y-101.854
X97.79Y-104.394
X100.33Y-101.854
X100.33Y-104.394
X102.87Y-101.854
X102.87Y-104.394
X105.41Y-101.854
X105.41Y-104.394
X107.95Y-101.854
X107.95Y-104.394
X110.49Y-29.21
X110.49Y-101.854
X110.49Y-104.394
X111.506Y-76.962
X111.506Y-79.502
X113.03Y-29.21
X116.332Y-41.402
X116.332Y-43.942
X116.332Y-46.482
X116.332Y-49.022
X116.332Y-51.562
X116.332Y-54.102
X116.332Y-56.642
X116.332Y-59.182
X116.332Y-61.722
X116.332Y-64.262
X116.332Y-66.802
X116.332Y-69.342
X116.332Y-71.882
X116.332Y-74.422
X116.332Y-76.962
X116.332Y-79.502
X116.332Y-82.042
X116.332Y-84.582
X116.332Y-87.122
X116.332Y-89.662
X116.332Y-92.202
X116.332Y-94.742
X118.872Y-41.402
X118.872Y-43.942
X118.872Y-46.482
X118.872Y-49.022
X118.872Y-51.562
X118.872Y-54.102
X118.872Y-56.642
X118.872Y-59.182
X118.872Y-61.722
X118.872Y-64.262
X118.872Y-66.802
X118.872Y-69.342
X118.872Y-71.882
X118.872Y-74.422
X118.872Y-76.962
X118.872Y-79.502
X118.872Y-82.042
X118.872Y-84.582
X118.872Y-87.122
X118.872Y-89.662
X118.872Y-92.202
X118.872Y-94.742
T6
X71.247Y-69.234
X71.247Y-94.234
T5
X71.374Y-37.608G85X71.374Y-39.608
G05
X73.374Y-43.308G85X75.374Y-43.308
G05
X77.374Y-37.608G85X77.374Y-39.608
G05
M30
