%TF.GenerationSoftware,KiCad,Pcbnew,9.0.5*%
%TF.CreationDate,2026-03-12T17:23:18+01:00*%
%TF.ProjectId,PAL-2-PSIO_v0.1,50414c2d-322d-4505-9349-4f5f76302e31,rev?*%
%TF.SameCoordinates,Original*%
%TF.FileFunction,Copper,L2,Bot*%
%TF.FilePolarity,Positive*%
%FSLAX46Y46*%
G04 Gerber Fmt 4.6, Leading zero omitted, Abs format (unit mm)*
G04 Created by KiCad (PCBNEW 9.0.5) date 2026-03-12 17:23:18*
%MOMM*%
%LPD*%
G01*
G04 APERTURE LIST*
G04 Aperture macros list*
%AMRoundRect*
0 Rectangle with rounded corners*
0 $1 Rounding radius*
0 $2 $3 $4 $5 $6 $7 $8 $9 X,Y pos of 4 corners*
0 Add a 4 corners polygon primitive as box body*
4,1,4,$2,$3,$4,$5,$6,$7,$8,$9,$2,$3,0*
0 Add four circle primitives for the rounded corners*
1,1,$1+$1,$2,$3*
1,1,$1+$1,$4,$5*
1,1,$1+$1,$6,$7*
1,1,$1+$1,$8,$9*
0 Add four rect primitives between the rounded corners*
20,1,$1+$1,$2,$3,$4,$5,0*
20,1,$1+$1,$4,$5,$6,$7,0*
20,1,$1+$1,$6,$7,$8,$9,0*
20,1,$1+$1,$8,$9,$2,$3,0*%
%AMFreePoly0*
4,1,23,0.500000,-0.750000,0.000000,-0.750000,0.000000,-0.745722,-0.065263,-0.745722,-0.191342,-0.711940,-0.304381,-0.646677,-0.396677,-0.554381,-0.461940,-0.441342,-0.495722,-0.315263,-0.495722,-0.250000,-0.500000,-0.250000,-0.500000,0.250000,-0.495722,0.250000,-0.495722,0.315263,-0.461940,0.441342,-0.396677,0.554381,-0.304381,0.646677,-0.191342,0.711940,-0.065263,0.745722,0.000000,0.745722,
0.000000,0.750000,0.500000,0.750000,0.500000,-0.750000,0.500000,-0.750000,$1*%
%AMFreePoly1*
4,1,23,0.000000,0.745722,0.065263,0.745722,0.191342,0.711940,0.304381,0.646677,0.396677,0.554381,0.461940,0.441342,0.495722,0.315263,0.495722,0.250000,0.500000,0.250000,0.500000,-0.250000,0.495722,-0.250000,0.495722,-0.315263,0.461940,-0.441342,0.396677,-0.554381,0.304381,-0.646677,0.191342,-0.711940,0.065263,-0.745722,0.000000,-0.745722,0.000000,-0.750000,-0.500000,-0.750000,
-0.500000,0.750000,0.000000,0.750000,0.000000,0.745722,0.000000,0.745722,$1*%
%AMFreePoly2*
4,1,23,0.550000,-0.750000,0.000000,-0.750000,0.000000,-0.745722,-0.065263,-0.745722,-0.191342,-0.711940,-0.304381,-0.646677,-0.396677,-0.554381,-0.461940,-0.441342,-0.495722,-0.315263,-0.495722,-0.250000,-0.500000,-0.250000,-0.500000,0.250000,-0.495722,0.250000,-0.495722,0.315263,-0.461940,0.441342,-0.396677,0.554381,-0.304381,0.646677,-0.191342,0.711940,-0.065263,0.745722,0.000000,0.745722,
0.000000,0.750000,0.550000,0.750000,0.550000,-0.750000,0.550000,-0.750000,$1*%
%AMFreePoly3*
4,1,23,0.000000,0.745722,0.065263,0.745722,0.191342,0.711940,0.304381,0.646677,0.396677,0.554381,0.461940,0.441342,0.495722,0.315263,0.495722,0.250000,0.500000,0.250000,0.500000,-0.250000,0.495722,-0.250000,0.495722,-0.315263,0.461940,-0.441342,0.396677,-0.554381,0.304381,-0.646677,0.191342,-0.711940,0.065263,-0.745722,0.000000,-0.745722,0.000000,-0.750000,-0.550000,-0.750000,
-0.550000,0.750000,0.000000,0.750000,0.000000,0.745722,0.000000,0.745722,$1*%
G04 Aperture macros list end*
%TA.AperFunction,ComponentPad*%
%ADD10C,1.600000*%
%TD*%
%TA.AperFunction,ComponentPad*%
%ADD11R,1.700000X1.700000*%
%TD*%
%TA.AperFunction,ComponentPad*%
%ADD12C,1.700000*%
%TD*%
%TA.AperFunction,ComponentPad*%
%ADD13RoundRect,0.412500X-0.412500X-0.412500X0.412500X-0.412500X0.412500X0.412500X-0.412500X0.412500X0*%
%TD*%
%TA.AperFunction,ComponentPad*%
%ADD14C,1.650000*%
%TD*%
%TA.AperFunction,ComponentPad*%
%ADD15RoundRect,0.250000X0.600000X0.600000X-0.600000X0.600000X-0.600000X-0.600000X0.600000X-0.600000X0*%
%TD*%
%TA.AperFunction,ComponentPad*%
%ADD16RoundRect,0.412500X0.412500X0.412500X-0.412500X0.412500X-0.412500X-0.412500X0.412500X-0.412500X0*%
%TD*%
%TA.AperFunction,ComponentPad*%
%ADD17R,3.500000X3.500000*%
%TD*%
%TA.AperFunction,ComponentPad*%
%ADD18RoundRect,0.750000X-0.750000X-1.000000X0.750000X-1.000000X0.750000X1.000000X-0.750000X1.000000X0*%
%TD*%
%TA.AperFunction,ComponentPad*%
%ADD19RoundRect,0.875000X-0.875000X-0.875000X0.875000X-0.875000X0.875000X0.875000X-0.875000X0.875000X0*%
%TD*%
%TA.AperFunction,ComponentPad*%
%ADD20RoundRect,0.250000X0.950000X0.550000X-0.950000X0.550000X-0.950000X-0.550000X0.950000X-0.550000X0*%
%TD*%
%TA.AperFunction,ComponentPad*%
%ADD21O,2.400000X1.600000*%
%TD*%
%TA.AperFunction,ComponentPad*%
%ADD22O,1.700000X1.700000*%
%TD*%
%TA.AperFunction,ComponentPad*%
%ADD23O,1.600000X1.600000*%
%TD*%
%TA.AperFunction,ComponentPad*%
%ADD24R,1.800000X1.800000*%
%TD*%
%TA.AperFunction,ComponentPad*%
%ADD25C,1.800000*%
%TD*%
%TA.AperFunction,ComponentPad*%
%ADD26C,4.000000*%
%TD*%
%TA.AperFunction,ComponentPad*%
%ADD27R,1.600000X1.600000*%
%TD*%
%TA.AperFunction,SMDPad,CuDef*%
%ADD28FreePoly0,90.000000*%
%TD*%
%TA.AperFunction,SMDPad,CuDef*%
%ADD29FreePoly1,90.000000*%
%TD*%
%TA.AperFunction,SMDPad,CuDef*%
%ADD30FreePoly2,0.000000*%
%TD*%
%TA.AperFunction,SMDPad,CuDef*%
%ADD31R,1.000000X1.500000*%
%TD*%
%TA.AperFunction,SMDPad,CuDef*%
%ADD32FreePoly3,0.000000*%
%TD*%
%TA.AperFunction,ViaPad*%
%ADD33C,0.800000*%
%TD*%
%TA.AperFunction,Conductor*%
%ADD34C,0.500000*%
%TD*%
%TA.AperFunction,Conductor*%
%ADD35C,0.250000*%
%TD*%
G04 APERTURE END LIST*
D10*
%TO.P,C1,1*%
%TO.N,Net-(U1-C1+)*%
X91694000Y-84074000D03*
%TO.P,C1,2*%
%TO.N,Net-(U1-C1-)*%
X91694000Y-89074000D03*
%TD*%
D11*
%TO.P,J6,1,Pin_1*%
%TO.N,Net-(J4-Pin_16)*%
X111506000Y-79502000D03*
D12*
%TO.P,J6,2,Pin_2*%
%TO.N,PB6*%
X111506000Y-76962000D03*
%TD*%
D10*
%TO.P,C4,1*%
%TO.N,GND*%
X91694000Y-73279000D03*
%TO.P,C4,2*%
%TO.N,Net-(U1-VS-)*%
X91694000Y-68279000D03*
%TD*%
D13*
%TO.P,SW3,1,A*%
%TO.N,KB_COL_A*%
X96012000Y-43688000D03*
D14*
%TO.P,SW3,2,B*%
%TO.N,KB_ROW_3*%
X98552000Y-43688000D03*
%TO.P,SW3,3,C*%
%TO.N,unconnected-(SW3A-C-Pad3)*%
X101092000Y-43688000D03*
%TD*%
D15*
%TO.P,J3,1,GND*%
%TO.N,GND*%
X69596000Y-59182000D03*
D12*
%TO.P,J3,2,+5V*%
%TO.N,+5V Serial-8*%
X67056000Y-59182000D03*
%TO.P,J3,3,TxD*%
%TO.N,TxD*%
X69596000Y-56642000D03*
%TO.P,J3,4,RxD*%
%TO.N,RxD Serial-8*%
X67056000Y-56642000D03*
%TO.P,J3,5,CTS*%
%TO.N,unconnected-(J3-CTS-Pad5)*%
X69596000Y-54102000D03*
%TO.P,J3,6,RTS*%
%TO.N,unconnected-(J3-RTS-Pad6)*%
X67056000Y-54102000D03*
%TO.P,J3,7,DTR*%
%TO.N,unconnected-(J3-DTR-Pad7)*%
X69596000Y-51562000D03*
%TO.P,J3,8,DSR*%
%TO.N,unconnected-(J3-DSR-Pad8)*%
X67056000Y-51562000D03*
%TD*%
D16*
%TO.P,SW4,1,A*%
%TO.N,RxD Serial-8*%
X101092000Y-54989000D03*
D14*
%TO.P,SW4,2,B*%
%TO.N,RxD*%
X98552000Y-54989000D03*
%TO.P,SW4,3,C*%
%TO.N,RxD RSS*%
X96012000Y-54989000D03*
%TD*%
D10*
%TO.P,C3,1*%
%TO.N,GND*%
X91694000Y-76414000D03*
%TO.P,C3,2*%
%TO.N,Net-(U1-VS+)*%
X91694000Y-81414000D03*
%TD*%
D17*
%TO.P,J2,1*%
%TO.N,/+5V Connector*%
X77374000Y-38608000D03*
D18*
%TO.P,J2,2*%
%TO.N,GND*%
X71374000Y-38608000D03*
D19*
%TO.P,J2,3*%
%TO.N,N/C*%
X74374000Y-43308000D03*
%TD*%
D20*
%TO.P,U1,1,C1+*%
%TO.N,Net-(U1-C1+)*%
X103124000Y-86614000D03*
D21*
%TO.P,U1,2,VS+*%
%TO.N,Net-(U1-VS+)*%
X103124000Y-84074000D03*
%TO.P,U1,3,C1-*%
%TO.N,Net-(U1-C1-)*%
X103124000Y-81534000D03*
%TO.P,U1,4,C2+*%
%TO.N,Net-(U1-C2+)*%
X103124000Y-78994000D03*
%TO.P,U1,5,C2-*%
%TO.N,Net-(U1-C2-)*%
X103124000Y-76454000D03*
%TO.P,U1,6,VS-*%
%TO.N,Net-(U1-VS-)*%
X103124000Y-73914000D03*
%TO.P,U1,7,T2OUT*%
%TO.N,unconnected-(U1-T2OUT-Pad7)*%
X103124000Y-71374000D03*
%TO.P,U1,8,R2IN*%
%TO.N,GND*%
X103124000Y-68834000D03*
%TO.P,U1,9,R2OUT*%
%TO.N,unconnected-(U1-R2OUT-Pad9)*%
X95504000Y-68834000D03*
%TO.P,U1,10,T2IN*%
%TO.N,GND*%
X95504000Y-71374000D03*
%TO.P,U1,11,T1IN*%
%TO.N,TxD*%
X95504000Y-73914000D03*
%TO.P,U1,12,R1OUT*%
%TO.N,RxD RSS*%
X95504000Y-76454000D03*
%TO.P,U1,13,R1IN*%
%TO.N,Net-(JP1-B)*%
X95504000Y-78994000D03*
%TO.P,U1,14,T1OUT*%
%TO.N,Net-(JP1-A)*%
X95504000Y-81534000D03*
%TO.P,U1,15,GND*%
%TO.N,GND*%
X95504000Y-84074000D03*
%TO.P,U1,16,VCC*%
%TO.N,+5V*%
X95504000Y-86614000D03*
%TD*%
D11*
%TO.P,J1,1,GND*%
%TO.N,GND*%
X116332000Y-41402000D03*
D22*
%TO.P,J1,2,PA3*%
%TO.N,/PA3*%
X116332000Y-43942000D03*
%TO.P,J1,3,PA2*%
%TO.N,/PA2*%
X116332000Y-46482000D03*
%TO.P,J1,4,PA1*%
%TO.N,/PA1*%
X116332000Y-49022000D03*
%TO.P,J1,5,PA4*%
%TO.N,/PA4*%
X116332000Y-51562000D03*
%TO.P,J1,6,PA5*%
%TO.N,/PA5*%
X116332000Y-54102000D03*
%TO.P,J1,7,PA6*%
%TO.N,/PA6*%
X116332000Y-56642000D03*
%TO.P,J1,8,PA7*%
%TO.N,/PA7*%
X116332000Y-59182000D03*
%TO.P,J1,9,PB0*%
%TO.N,/PB0*%
X116332000Y-61722000D03*
%TO.P,J1,10,PB1*%
%TO.N,/PB1*%
X116332000Y-64262000D03*
%TO.P,J1,11,PB2*%
%TO.N,/PB2*%
X116332000Y-66802000D03*
%TO.P,J1,12,PB3*%
%TO.N,/PB3*%
X116332000Y-69342000D03*
%TO.P,J1,13,PB4*%
%TO.N,/PB4*%
X116332000Y-71882000D03*
%TO.P,J1,14,PA0*%
%TO.N,/PA0*%
X116332000Y-74422000D03*
%TO.P,J1,15,PB7*%
%TO.N,/PB7*%
X116332000Y-76962000D03*
%TO.P,J1,16,PB5*%
%TO.N,/PB5*%
X116332000Y-79502000D03*
%TO.P,J1,17,KB_ROW_0*%
%TO.N,unconnected-(J1-KB_ROW_0-Pad17)*%
X116332000Y-82042000D03*
%TO.P,J1,18,KB_COL_F*%
%TO.N,unconnected-(J1-KB_COL_F-Pad18)*%
X116332000Y-84582000D03*
%TO.P,J1,19,KB_COL_B*%
%TO.N,unconnected-(J1-KB_COL_B-Pad19)*%
X116332000Y-87122000D03*
%TO.P,J1,20,KB_COL_E*%
%TO.N,unconnected-(J1-KB_COL_E-Pad20)*%
X116332000Y-89662000D03*
%TO.P,J1,21,KB_COL_A*%
%TO.N,KB_COL_A*%
X116332000Y-92202000D03*
%TO.P,J1,22,KB_COL_D*%
%TO.N,unconnected-(J1-KB_COL_D-Pad22)*%
X116332000Y-94742000D03*
%TO.P,J1,A,+5V*%
%TO.N,+5V*%
X118872000Y-41402000D03*
%TO.P,J1,B,K0*%
%TO.N,unconnected-(J1-K0-PadB)*%
X118872000Y-43942000D03*
%TO.P,J1,C,K1*%
%TO.N,unconnected-(J1-K1-PadC)*%
X118872000Y-46482000D03*
%TO.P,J1,D,K2*%
%TO.N,unconnected-(J1-K2-PadD)*%
X118872000Y-49022000D03*
%TO.P,J1,E,K3*%
%TO.N,unconnected-(J1-K3-PadE)*%
X118872000Y-51562000D03*
%TO.P,J1,F,K4*%
%TO.N,unconnected-(J1-K4-PadF)*%
X118872000Y-54102000D03*
%TO.P,J1,H,K5*%
%TO.N,unconnected-(J1-K5-PadH)*%
X118872000Y-56642000D03*
%TO.P,J1,J,K7*%
%TO.N,unconnected-(J1-K7-PadJ)*%
X118872000Y-59182000D03*
%TO.P,J1,K,DECODE_EN*%
%TO.N,Net-(J1-DECODE_EN)*%
X118872000Y-61722000D03*
%TO.P,J1,L,TOP_8K_SELECT*%
%TO.N,unconnected-(J1-TOP_8K_SELECT-PadL)*%
X118872000Y-64262000D03*
%TO.P,J1,M,TOP_8K_ENABLE*%
%TO.N,unconnected-(J1-TOP_8K_ENABLE-PadM)*%
X118872000Y-66802000D03*
%TO.P,J1,N*%
%TO.N,N/C*%
X118872000Y-69342000D03*
%TO.P,J1,P*%
X118872000Y-71882000D03*
%TO.P,J1,R,PB6*%
%TO.N,PB6*%
X118872000Y-74422000D03*
%TO.P,J1,S*%
%TO.N,N/C*%
X118872000Y-76962000D03*
%TO.P,J1,T,TTY_KYBD*%
%TO.N,RxD*%
X118872000Y-79502000D03*
%TO.P,J1,U,TTY_PTR*%
%TO.N,TxD*%
X118872000Y-82042000D03*
%TO.P,J1,V,KB_ROW_3*%
%TO.N,KB_ROW_3*%
X118872000Y-84582000D03*
%TO.P,J1,W,KB_COL_G*%
%TO.N,unconnected-(J1-KB_COL_G-PadW)*%
X118872000Y-87122000D03*
%TO.P,J1,X,KB_ROW_2*%
%TO.N,unconnected-(J1-KB_ROW_2-PadX)*%
X118872000Y-89662000D03*
%TO.P,J1,Y,KB_COL_C*%
%TO.N,unconnected-(J1-KB_COL_C-PadY)*%
X118872000Y-92202000D03*
%TO.P,J1,Z,KB_ROW_1*%
%TO.N,unconnected-(J1-KB_ROW_1-PadZ)*%
X118872000Y-94742000D03*
%TD*%
D10*
%TO.P,C2,1*%
%TO.N,Net-(U1-C2+)*%
X96306000Y-90424000D03*
%TO.P,C2,2*%
%TO.N,Net-(U1-C2-)*%
X101306000Y-90424000D03*
%TD*%
%TO.P,R1,1*%
%TO.N,+5V*%
X84074000Y-58420000D03*
D23*
%TO.P,R1,2*%
%TO.N,Net-(D1-A)*%
X84074000Y-45720000D03*
%TD*%
D11*
%TO.P,SW5.2,1,Pin_1*%
%TO.N,Net-(JP1-B)*%
X85090000Y-75200000D03*
D12*
%TO.P,SW5.2,2,Pin_2*%
X85090000Y-77740000D03*
%TO.P,SW5.2,3,Pin_3*%
%TO.N,Net-(JP2-C)*%
X85090000Y-80280000D03*
%TO.P,SW5.2,4,Pin_4*%
%TO.N,Net-(JP1-A)*%
X85090000Y-82820000D03*
%TO.P,SW5.2,5,Pin_5*%
X85090000Y-85360000D03*
%TD*%
D11*
%TO.P,J7,1,Pin_1*%
%TO.N,+5V*%
X110490000Y-29210000D03*
D12*
%TO.P,J7,2,Pin_2*%
%TO.N,Net-(J1-DECODE_EN)*%
X113030000Y-29210000D03*
%TD*%
D11*
%TO.P,SW5,1,Pin_1*%
%TO.N,Net-(JP1-A)*%
X82550000Y-77724000D03*
D12*
%TO.P,SW5,2,Pin_2*%
%TO.N,Net-(JP1-C)*%
X82550000Y-80264000D03*
%TO.P,SW5,3,Pin_3*%
%TO.N,Net-(JP1-B)*%
X82550000Y-82804000D03*
%TD*%
D11*
%TO.P,J4,1,Pin_1*%
%TO.N,GND*%
X110490000Y-101854000D03*
D22*
%TO.P,J4,2,Pin_2*%
%TO.N,+5V*%
X110490000Y-104394000D03*
%TO.P,J4,3,Pin_3*%
%TO.N,/PA0*%
X107950000Y-101854000D03*
%TO.P,J4,4,Pin_4*%
%TO.N,/PB0*%
X107950000Y-104394000D03*
%TO.P,J4,5,Pin_5*%
%TO.N,/PA1*%
X105410000Y-101854000D03*
%TO.P,J4,6,Pin_6*%
%TO.N,/PB1*%
X105410000Y-104394000D03*
%TO.P,J4,7,Pin_7*%
%TO.N,/PA2*%
X102870000Y-101854000D03*
%TO.P,J4,8,Pin_8*%
%TO.N,/PB2*%
X102870000Y-104394000D03*
%TO.P,J4,9,Pin_9*%
%TO.N,/PA3*%
X100330000Y-101854000D03*
%TO.P,J4,10,Pin_10*%
%TO.N,/PB3*%
X100330000Y-104394000D03*
%TO.P,J4,11,Pin_11*%
%TO.N,/PA4*%
X97790000Y-101854000D03*
%TO.P,J4,12,Pin_12*%
%TO.N,/PB4*%
X97790000Y-104394000D03*
%TO.P,J4,13,Pin_13*%
%TO.N,/PA5*%
X95250000Y-101854000D03*
%TO.P,J4,14,Pin_14*%
%TO.N,/PB5*%
X95250000Y-104394000D03*
%TO.P,J4,15,Pin_15*%
%TO.N,/PA6*%
X92710000Y-101854000D03*
%TO.P,J4,16,Pin_16*%
%TO.N,Net-(J4-Pin_16)*%
X92710000Y-104394000D03*
%TO.P,J4,17,Pin_17*%
%TO.N,/PA7*%
X90170000Y-101854000D03*
%TO.P,J4,18,Pin_18*%
%TO.N,/PB7*%
X90170000Y-104394000D03*
%TD*%
D24*
%TO.P,D1,1,K*%
%TO.N,GND*%
X85852000Y-31750000D03*
D25*
%TO.P,D1,2,A*%
%TO.N,Net-(D1-A)*%
X88392000Y-31750000D03*
%TD*%
D13*
%TO.P,SW1,1,1*%
%TO.N,/+5V Connector*%
X97282000Y-30734000D03*
D14*
%TO.P,SW1,2,3*%
%TO.N,+5V*%
X99822000Y-30734000D03*
%TO.P,SW1,3,4*%
%TO.N,+5V Serial-8*%
X102362000Y-30734000D03*
%TD*%
D26*
%TO.P,J5,0,PAD*%
%TO.N,GND*%
X71247000Y-69234000D03*
X71247000Y-94234000D03*
D27*
%TO.P,J5,1,1*%
%TO.N,unconnected-(J5-Pad1)*%
X71547000Y-76194000D03*
D10*
%TO.P,J5,2,2*%
%TO.N,Net-(JP2-C)*%
X71547000Y-78964000D03*
%TO.P,J5,3,3*%
%TO.N,Net-(JP1-C)*%
X71547000Y-81734000D03*
%TO.P,J5,4,4*%
%TO.N,unconnected-(J5-Pad4)*%
X71547000Y-84504000D03*
%TO.P,J5,5,5*%
%TO.N,GND*%
X71547000Y-87274000D03*
%TO.P,J5,6,6*%
%TO.N,unconnected-(J5-Pad6)*%
X68707000Y-77579000D03*
%TO.P,J5,7,7*%
%TO.N,unconnected-(J5-Pad7)*%
X68707000Y-80349000D03*
%TO.P,J5,8,8*%
%TO.N,unconnected-(J5-Pad8)*%
X68707000Y-83119000D03*
%TO.P,J5,9,9*%
%TO.N,unconnected-(J5-Pad9)*%
X68707000Y-85889000D03*
%TD*%
D11*
%TO.P,SW5.1,1,Pin_1*%
%TO.N,Net-(JP1-A)*%
X80010000Y-75184000D03*
D12*
%TO.P,SW5.1,2,Pin_2*%
X80010000Y-77724000D03*
%TO.P,SW5.1,3,Pin_3*%
%TO.N,Net-(JP1-C)*%
X80010000Y-80264000D03*
%TO.P,SW5.1,4,Pin_4*%
%TO.N,Net-(JP1-B)*%
X80010000Y-82804000D03*
%TO.P,SW5.1,5,Pin_5*%
X80010000Y-85344000D03*
%TD*%
D28*
%TO.P,JP3,1,A*%
%TO.N,Net-(J4-Pin_16)*%
X108712000Y-78919000D03*
D29*
%TO.P,JP3,2,B*%
%TO.N,PB6*%
X108712000Y-77619000D03*
%TD*%
D30*
%TO.P,JP2,1,A*%
%TO.N,Net-(JP1-B)*%
X81220000Y-89916000D03*
D31*
%TO.P,JP2,2,C*%
%TO.N,Net-(JP2-C)*%
X82520000Y-89916000D03*
D32*
%TO.P,JP2,3,B*%
%TO.N,Net-(JP1-A)*%
X83820000Y-89916000D03*
%TD*%
D30*
%TO.P,JP1,1,A*%
%TO.N,Net-(JP1-A)*%
X81250000Y-70866000D03*
D31*
%TO.P,JP1,2,C*%
%TO.N,Net-(JP1-C)*%
X82550000Y-70866000D03*
D32*
%TO.P,JP1,3,B*%
%TO.N,Net-(JP1-B)*%
X83850000Y-70866000D03*
%TD*%
D33*
%TO.N,/PA4*%
X106426000Y-53234600D03*
%TO.N,/PA5*%
X98129300Y-57912100D03*
%TO.N,/PA6*%
X106471000Y-98102600D03*
%TO.N,/PA7*%
X97654100Y-61503400D03*
%TO.N,/PB2*%
X104606400Y-94970200D03*
X114212100Y-96139700D03*
%TO.N,/PB4*%
X107162800Y-100433300D03*
X111509000Y-72300100D03*
%TO.N,/PA0*%
X110531100Y-74353200D03*
%TO.N,/PB7*%
X115314400Y-102892800D03*
%TO.N,/PB5*%
X104732500Y-80584300D03*
%TO.N,KB_COL_A*%
X98020500Y-85874400D03*
%TO.N,RxD*%
X99268200Y-77357500D03*
%TO.N,KB_ROW_3*%
X99645600Y-86085400D03*
%TO.N,+5V Serial-8*%
X94529600Y-59011400D03*
%TO.N,Net-(U1-C1-)*%
X98006400Y-90366400D03*
%TO.N,Net-(U1-VS-)*%
X90185100Y-72755500D03*
%TO.N,Net-(J4-Pin_16)*%
X108809400Y-99181400D03*
%TD*%
D34*
%TO.N,GND*%
X98932300Y-71374000D02*
X101472300Y-68834000D01*
X107669800Y-96837300D02*
X73850300Y-96837300D01*
X73850300Y-96837300D02*
X71247000Y-94234000D01*
X95504000Y-41402000D02*
X87130600Y-33028600D01*
X110490000Y-99657500D02*
X107669800Y-96837300D01*
X73623400Y-40857400D02*
X71374000Y-38608000D01*
X95504000Y-71374000D02*
X93599000Y-71374000D01*
X87130600Y-33028600D02*
X85852000Y-31750000D01*
X79301800Y-40857400D02*
X73623400Y-40857400D01*
X110490000Y-100552300D02*
X110490000Y-99657500D01*
X87868100Y-69234000D02*
X71247000Y-69234000D01*
X91694000Y-73279000D02*
X91694000Y-73059900D01*
X87130600Y-33028600D02*
X79301800Y-40857400D01*
X95504000Y-71374000D02*
X98932300Y-71374000D01*
X103124000Y-68834000D02*
X101472300Y-68834000D01*
X116332000Y-41402000D02*
X95504000Y-41402000D01*
X110490000Y-101854000D02*
X110490000Y-100552300D01*
X91694000Y-73059900D02*
X87868100Y-69234000D01*
X93599000Y-71374000D02*
X91694000Y-73279000D01*
D35*
%TO.N,/PA4*%
X106426000Y-53234600D02*
X108098600Y-51562000D01*
X108098600Y-51562000D02*
X116332000Y-51562000D01*
%TO.N,/PA5*%
X119341100Y-52892200D02*
X120075100Y-53626200D01*
X118350800Y-52892200D02*
X119341100Y-52892200D01*
X120075100Y-53626200D02*
X120075100Y-57125800D01*
X98129300Y-57912000D02*
X98129300Y-57912100D01*
X120075100Y-57125800D02*
X119288900Y-57912000D01*
X117508700Y-53734300D02*
X118350800Y-52892200D01*
X116332000Y-54102000D02*
X117508700Y-54102000D01*
X117508700Y-54102000D02*
X117508700Y-53734300D01*
X119288900Y-57912000D02*
X98129300Y-57912000D01*
%TO.N,/PA6*%
X106471000Y-98102600D02*
X97270400Y-98102600D01*
X97270400Y-98102600D02*
X93886700Y-101486300D01*
X93886700Y-101486300D02*
X93886700Y-101854000D01*
X92710000Y-101854000D02*
X93886700Y-101854000D01*
%TO.N,/PA7*%
X99975500Y-59182000D02*
X97654100Y-61503400D01*
X116332000Y-59182000D02*
X99975500Y-59182000D01*
%TO.N,/PB2*%
X113042600Y-94970200D02*
X114212100Y-96139700D01*
X104606400Y-94970200D02*
X113042600Y-94970200D01*
%TO.N,/PB4*%
X97790000Y-104394000D02*
X98966700Y-104394000D01*
X101600000Y-101381400D02*
X102548000Y-100433400D01*
X98966700Y-104026200D02*
X99775600Y-103217300D01*
X98966700Y-104394000D02*
X98966700Y-104026200D01*
X99775600Y-103217300D02*
X100667500Y-103217300D01*
X102548000Y-100433400D02*
X107162800Y-100433400D01*
X107162800Y-100433400D02*
X107162800Y-100433300D01*
X100667500Y-103217300D02*
X101600000Y-102284800D01*
X111927100Y-71882000D02*
X111509000Y-72300100D01*
X116332000Y-71882000D02*
X111927100Y-71882000D01*
X101600000Y-102284800D02*
X101600000Y-101381400D01*
%TO.N,/PA0*%
X110531100Y-74353200D02*
X110599900Y-74422000D01*
X110599900Y-74422000D02*
X116332000Y-74422000D01*
%TO.N,/PB7*%
X90170000Y-104394000D02*
X91346700Y-104394000D01*
X91346700Y-104761700D02*
X92166900Y-105581900D01*
X91346700Y-104394000D02*
X91346700Y-104761700D01*
X92166900Y-105581900D02*
X112625300Y-105581900D01*
X112625300Y-105581900D02*
X115314400Y-102892800D01*
%TO.N,/PB5*%
X113442100Y-81215200D02*
X105363400Y-81215200D01*
X105363400Y-81215200D02*
X104732500Y-80584300D01*
X116332000Y-79502000D02*
X115155300Y-79502000D01*
X115155300Y-79502000D02*
X113442100Y-81215200D01*
%TO.N,KB_COL_A*%
X116332000Y-92202000D02*
X104734300Y-92202000D01*
X98406700Y-85874400D02*
X98020500Y-85874400D01*
X104734300Y-92202000D02*
X98406700Y-85874400D01*
D34*
%TO.N,+5V*%
X98858100Y-90426300D02*
X98858100Y-88316400D01*
X110490000Y-29210000D02*
X101346000Y-29210000D01*
X107883800Y-96032200D02*
X104464000Y-96032200D01*
X111791700Y-104394000D02*
X111791700Y-99940100D01*
X101346000Y-29210000D02*
X99822000Y-30734000D01*
X110490000Y-104394000D02*
X111791700Y-104394000D01*
X104464000Y-96032200D02*
X98858100Y-90426300D01*
X98858100Y-88316400D02*
X97155700Y-86614000D01*
X95504000Y-86614000D02*
X97155700Y-86614000D01*
X111791700Y-99940100D02*
X107883800Y-96032200D01*
D35*
%TO.N,RxD*%
X117695300Y-79134300D02*
X116885500Y-78324500D01*
X118872000Y-79502000D02*
X117695300Y-79502000D01*
X116885500Y-78324500D02*
X115524300Y-78324500D01*
X108022500Y-80745000D02*
X105001500Y-77724000D01*
X105001500Y-77724000D02*
X99634700Y-77724000D01*
X113103800Y-80745000D02*
X108022500Y-80745000D01*
X115524300Y-78324500D02*
X113103800Y-80745000D01*
X117695300Y-79502000D02*
X117695300Y-79134300D01*
X99634700Y-77724000D02*
X99268200Y-77357500D01*
%TO.N,KB_ROW_3*%
X101342800Y-87782600D02*
X99645600Y-86085400D01*
X106212100Y-87782600D02*
X101342800Y-87782600D01*
X117695300Y-84949800D02*
X116886400Y-85758700D01*
X117695300Y-84582000D02*
X117695300Y-84949800D01*
X116886400Y-85758700D02*
X108236000Y-85758700D01*
X118872000Y-84582000D02*
X117695300Y-84582000D01*
X108236000Y-85758700D02*
X106212100Y-87782600D01*
%TO.N,TxD*%
X118872000Y-82042000D02*
X118872000Y-80865300D01*
X95504000Y-73914000D02*
X98486000Y-73914000D01*
X119321400Y-73152000D02*
X120048700Y-73879300D01*
X104650700Y-68292200D02*
X104650700Y-69357100D01*
X104650700Y-69357100D02*
X108445600Y-73152000D01*
X96927400Y-60381500D02*
X96927400Y-61805900D01*
X69596000Y-56642000D02*
X93187900Y-56642000D01*
X93187900Y-56642000D02*
X96927400Y-60381500D01*
X120048700Y-73879300D02*
X120048700Y-80056400D01*
X119239800Y-80865300D02*
X118872000Y-80865300D01*
X120048700Y-80056400D02*
X119239800Y-80865300D01*
X102296000Y-70104000D02*
X103903800Y-70104000D01*
X108445600Y-73152000D02*
X119321400Y-73152000D01*
X96927400Y-61805900D02*
X97353100Y-62231600D01*
X98486000Y-73914000D02*
X102296000Y-70104000D01*
X97353100Y-62231600D02*
X98590100Y-62231600D01*
X98590100Y-62231600D02*
X104650700Y-68292200D01*
X103903800Y-70104000D02*
X104650700Y-69357100D01*
D34*
%TO.N,+5V Serial-8*%
X92999400Y-60541600D02*
X94529600Y-59011400D01*
X67056000Y-59182000D02*
X68415600Y-60541600D01*
X68415600Y-60541600D02*
X92999400Y-60541600D01*
D35*
%TO.N,RxD Serial-8*%
X67056000Y-56642000D02*
X68246600Y-55451400D01*
X68246600Y-55451400D02*
X94342100Y-55451400D01*
X95071800Y-56181100D02*
X99899900Y-56181100D01*
X94342100Y-55451400D02*
X95071800Y-56181100D01*
X99899900Y-56181100D02*
X101092000Y-54989000D01*
D34*
%TO.N,/+5V Connector*%
X97282000Y-30734000D02*
X96237500Y-29689500D01*
X96237500Y-29689500D02*
X84090800Y-29689500D01*
X77374000Y-38608000D02*
X77374000Y-36406300D01*
X84090800Y-29689500D02*
X77374000Y-36406300D01*
D35*
%TO.N,Net-(U1-C1+)*%
X97523300Y-85344000D02*
X92964000Y-85344000D01*
X101657700Y-85147700D02*
X97719600Y-85147700D01*
X97719600Y-85147700D02*
X97523300Y-85344000D01*
X103124000Y-86614000D02*
X101657700Y-85147700D01*
X92964000Y-85344000D02*
X91694000Y-84074000D01*
%TO.N,Net-(U1-C1-)*%
X98006400Y-90366400D02*
X96714000Y-89074000D01*
X96714000Y-89074000D02*
X91694000Y-89074000D01*
%TO.N,Net-(U1-VS+)*%
X103124000Y-84074000D02*
X101597300Y-84074000D01*
X91694000Y-81414000D02*
X92726200Y-80381800D01*
X92726200Y-80381800D02*
X97905100Y-80381800D01*
X97905100Y-80381800D02*
X101597300Y-84074000D01*
%TO.N,Net-(U1-VS-)*%
X90185100Y-73379000D02*
X91875600Y-75069500D01*
X100441800Y-75069500D02*
X101597300Y-73914000D01*
X90185100Y-72755500D02*
X90185100Y-73379000D01*
X91875600Y-75069500D02*
X100441800Y-75069500D01*
X103124000Y-73914000D02*
X101597300Y-73914000D01*
%TO.N,PB6*%
X112869300Y-75598700D02*
X116886400Y-75598700D01*
X116886400Y-75598700D02*
X117695300Y-74789800D01*
X111506000Y-76962000D02*
X112869300Y-75598700D01*
X111506000Y-76962000D02*
X109369000Y-76962000D01*
X117695300Y-74789800D02*
X117695300Y-74422000D01*
X109369000Y-76962000D02*
X108712000Y-77619000D01*
X118872000Y-74422000D02*
X117695300Y-74422000D01*
%TO.N,Net-(J4-Pin_16)*%
X93886700Y-104394000D02*
X93886700Y-104026200D01*
X93886700Y-104026200D02*
X94695600Y-103217300D01*
X95565600Y-103217300D02*
X96520000Y-102262900D01*
X92710000Y-104394000D02*
X93886700Y-104394000D01*
X109295000Y-79502000D02*
X108712000Y-78919000D01*
X94695600Y-103217300D02*
X95565600Y-103217300D01*
X111506000Y-79502000D02*
X109295000Y-79502000D01*
X98710400Y-99181400D02*
X108809400Y-99181400D01*
X96520000Y-101371800D02*
X98710400Y-99181400D01*
X96520000Y-102262900D02*
X96520000Y-101371800D01*
%TO.N,Net-(JP2-C)*%
X83726000Y-86086190D02*
X82520000Y-87292190D01*
X82520000Y-87292190D02*
X82520000Y-89916000D01*
X85090000Y-81026000D02*
X83726000Y-82390000D01*
X83726000Y-82390000D02*
X83726000Y-86086190D01*
X85090000Y-80280000D02*
X85090000Y-81026000D01*
%TO.N,Net-(JP1-C)*%
X80010000Y-79673600D02*
X80010000Y-80264000D01*
X80010000Y-80264000D02*
X82550000Y-80264000D01*
X81186000Y-73230000D02*
X82550000Y-71866000D01*
X81186000Y-79088000D02*
X81186000Y-73230000D01*
X82550000Y-71866000D02*
X82550000Y-70866000D01*
X80010000Y-80264000D02*
X81186000Y-79088000D01*
%TO.N,Net-(JP1-B)*%
X95504000Y-78994000D02*
X86344000Y-78994000D01*
X83914000Y-78916000D02*
X83914000Y-81440000D01*
X86344000Y-78994000D02*
X85090000Y-77740000D01*
X85090000Y-77740000D02*
X83914000Y-78916000D01*
X85090000Y-75200000D02*
X85090000Y-72106000D01*
X80010000Y-82804000D02*
X80010000Y-85344000D01*
X82550000Y-82804000D02*
X80010000Y-82804000D01*
X83914000Y-81440000D02*
X82550000Y-82804000D01*
X81220000Y-86554000D02*
X81220000Y-89916000D01*
X85090000Y-77740000D02*
X85090000Y-75200000D01*
X80010000Y-85344000D02*
X81220000Y-86554000D01*
X85090000Y-72106000D02*
X83850000Y-70866000D01*
%TO.N,Net-(JP1-A)*%
X80010000Y-72106000D02*
X81250000Y-70866000D01*
X85090000Y-85360000D02*
X83820000Y-86630000D01*
X95504000Y-81534000D02*
X94218000Y-82820000D01*
X94218000Y-82820000D02*
X85090000Y-82820000D01*
X80010000Y-75184000D02*
X80010000Y-77724000D01*
X80010000Y-75184000D02*
X80010000Y-72106000D01*
X85090000Y-82820000D02*
X85090000Y-85360000D01*
X83820000Y-86630000D02*
X83820000Y-89916000D01*
%TD*%
M02*
