%TF.GenerationSoftware,KiCad,Pcbnew,9.0.5*%
%TF.CreationDate,2026-03-12T17:23:18+01:00*%
%TF.ProjectId,PAL-2-PSIO_v0.1,50414c2d-322d-4505-9349-4f5f76302e31,rev?*%
%TF.SameCoordinates,Original*%
%TF.FileFunction,Copper,L1,Top*%
%TF.FilePolarity,Positive*%
%FSLAX46Y46*%
G04 Gerber Fmt 4.6, Leading zero omitted, Abs format (unit mm)*
G04 Created by KiCad (PCBNEW 9.0.5) date 2026-03-12 17:23:18*
%MOMM*%
%LPD*%
G01*
G04 APERTURE LIST*
G04 Aperture macros list*
%AMRoundRect*
0 Rectangle with rounded corners*
0 $1 Rounding radius*
0 $2 $3 $4 $5 $6 $7 $8 $9 X,Y pos of 4 corners*
0 Add a 4 corners polygon primitive as box body*
4,1,4,$2,$3,$4,$5,$6,$7,$8,$9,$2,$3,0*
0 Add four circle primitives for the rounded corners*
1,1,$1+$1,$2,$3*
1,1,$1+$1,$4,$5*
1,1,$1+$1,$6,$7*
1,1,$1+$1,$8,$9*
0 Add four rect primitives between the rounded corners*
20,1,$1+$1,$2,$3,$4,$5,0*
20,1,$1+$1,$4,$5,$6,$7,0*
20,1,$1+$1,$6,$7,$8,$9,0*
20,1,$1+$1,$8,$9,$2,$3,0*%
G04 Aperture macros list end*
%TA.AperFunction,ComponentPad*%
%ADD10C,1.600000*%
%TD*%
%TA.AperFunction,ComponentPad*%
%ADD11R,1.700000X1.700000*%
%TD*%
%TA.AperFunction,ComponentPad*%
%ADD12C,1.700000*%
%TD*%
%TA.AperFunction,ComponentPad*%
%ADD13RoundRect,0.412500X-0.412500X-0.412500X0.412500X-0.412500X0.412500X0.412500X-0.412500X0.412500X0*%
%TD*%
%TA.AperFunction,ComponentPad*%
%ADD14C,1.650000*%
%TD*%
%TA.AperFunction,ComponentPad*%
%ADD15RoundRect,0.250000X0.600000X0.600000X-0.600000X0.600000X-0.600000X-0.600000X0.600000X-0.600000X0*%
%TD*%
%TA.AperFunction,ComponentPad*%
%ADD16RoundRect,0.412500X0.412500X0.412500X-0.412500X0.412500X-0.412500X-0.412500X0.412500X-0.412500X0*%
%TD*%
%TA.AperFunction,ComponentPad*%
%ADD17R,3.500000X3.500000*%
%TD*%
%TA.AperFunction,ComponentPad*%
%ADD18RoundRect,0.750000X-0.750000X-1.000000X0.750000X-1.000000X0.750000X1.000000X-0.750000X1.000000X0*%
%TD*%
%TA.AperFunction,ComponentPad*%
%ADD19RoundRect,0.875000X-0.875000X-0.875000X0.875000X-0.875000X0.875000X0.875000X-0.875000X0.875000X0*%
%TD*%
%TA.AperFunction,ComponentPad*%
%ADD20RoundRect,0.250000X0.950000X0.550000X-0.950000X0.550000X-0.950000X-0.550000X0.950000X-0.550000X0*%
%TD*%
%TA.AperFunction,ComponentPad*%
%ADD21O,2.400000X1.600000*%
%TD*%
%TA.AperFunction,ComponentPad*%
%ADD22O,1.700000X1.700000*%
%TD*%
%TA.AperFunction,ComponentPad*%
%ADD23O,1.600000X1.600000*%
%TD*%
%TA.AperFunction,ComponentPad*%
%ADD24R,1.800000X1.800000*%
%TD*%
%TA.AperFunction,ComponentPad*%
%ADD25C,1.800000*%
%TD*%
%TA.AperFunction,ComponentPad*%
%ADD26C,4.000000*%
%TD*%
%TA.AperFunction,ComponentPad*%
%ADD27R,1.600000X1.600000*%
%TD*%
%TA.AperFunction,ViaPad*%
%ADD28C,0.800000*%
%TD*%
%TA.AperFunction,Conductor*%
%ADD29C,0.500000*%
%TD*%
%TA.AperFunction,Conductor*%
%ADD30C,0.250000*%
%TD*%
G04 APERTURE END LIST*
D10*
%TO.P,C1,1*%
%TO.N,Net-(U1-C1+)*%
X91694000Y-84074000D03*
%TO.P,C1,2*%
%TO.N,Net-(U1-C1-)*%
X91694000Y-89074000D03*
%TD*%
D11*
%TO.P,J6,1,Pin_1*%
%TO.N,Net-(J4-Pin_16)*%
X111506000Y-79502000D03*
D12*
%TO.P,J6,2,Pin_2*%
%TO.N,PB6*%
X111506000Y-76962000D03*
%TD*%
D10*
%TO.P,C4,1*%
%TO.N,GND*%
X91694000Y-73279000D03*
%TO.P,C4,2*%
%TO.N,Net-(U1-VS-)*%
X91694000Y-68279000D03*
%TD*%
D13*
%TO.P,SW3,1,A*%
%TO.N,KB_COL_A*%
X96012000Y-43688000D03*
D14*
%TO.P,SW3,2,B*%
%TO.N,KB_ROW_3*%
X98552000Y-43688000D03*
%TO.P,SW3,3,C*%
%TO.N,unconnected-(SW3A-C-Pad3)*%
X101092000Y-43688000D03*
%TD*%
D15*
%TO.P,J3,1,GND*%
%TO.N,GND*%
X69596000Y-59182000D03*
D12*
%TO.P,J3,2,+5V*%
%TO.N,+5V Serial-8*%
X67056000Y-59182000D03*
%TO.P,J3,3,TxD*%
%TO.N,TxD*%
X69596000Y-56642000D03*
%TO.P,J3,4,RxD*%
%TO.N,RxD Serial-8*%
X67056000Y-56642000D03*
%TO.P,J3,5,CTS*%
%TO.N,unconnected-(J3-CTS-Pad5)*%
X69596000Y-54102000D03*
%TO.P,J3,6,RTS*%
%TO.N,unconnected-(J3-RTS-Pad6)*%
X67056000Y-54102000D03*
%TO.P,J3,7,DTR*%
%TO.N,unconnected-(J3-DTR-Pad7)*%
X69596000Y-51562000D03*
%TO.P,J3,8,DSR*%
%TO.N,unconnected-(J3-DSR-Pad8)*%
X67056000Y-51562000D03*
%TD*%
D16*
%TO.P,SW4,1,A*%
%TO.N,RxD Serial-8*%
X101092000Y-54989000D03*
D14*
%TO.P,SW4,2,B*%
%TO.N,RxD*%
X98552000Y-54989000D03*
%TO.P,SW4,3,C*%
%TO.N,RxD RSS*%
X96012000Y-54989000D03*
%TD*%
D10*
%TO.P,C3,1*%
%TO.N,GND*%
X91694000Y-76414000D03*
%TO.P,C3,2*%
%TO.N,Net-(U1-VS+)*%
X91694000Y-81414000D03*
%TD*%
D17*
%TO.P,J2,1*%
%TO.N,/+5V Connector*%
X77374000Y-38608000D03*
D18*
%TO.P,J2,2*%
%TO.N,GND*%
X71374000Y-38608000D03*
D19*
%TO.P,J2,3*%
%TO.N,N/C*%
X74374000Y-43308000D03*
%TD*%
D20*
%TO.P,U1,1,C1+*%
%TO.N,Net-(U1-C1+)*%
X103124000Y-86614000D03*
D21*
%TO.P,U1,2,VS+*%
%TO.N,Net-(U1-VS+)*%
X103124000Y-84074000D03*
%TO.P,U1,3,C1-*%
%TO.N,Net-(U1-C1-)*%
X103124000Y-81534000D03*
%TO.P,U1,4,C2+*%
%TO.N,Net-(U1-C2+)*%
X103124000Y-78994000D03*
%TO.P,U1,5,C2-*%
%TO.N,Net-(U1-C2-)*%
X103124000Y-76454000D03*
%TO.P,U1,6,VS-*%
%TO.N,Net-(U1-VS-)*%
X103124000Y-73914000D03*
%TO.P,U1,7,T2OUT*%
%TO.N,unconnected-(U1-T2OUT-Pad7)*%
X103124000Y-71374000D03*
%TO.P,U1,8,R2IN*%
%TO.N,GND*%
X103124000Y-68834000D03*
%TO.P,U1,9,R2OUT*%
%TO.N,unconnected-(U1-R2OUT-Pad9)*%
X95504000Y-68834000D03*
%TO.P,U1,10,T2IN*%
%TO.N,GND*%
X95504000Y-71374000D03*
%TO.P,U1,11,T1IN*%
%TO.N,TxD*%
X95504000Y-73914000D03*
%TO.P,U1,12,R1OUT*%
%TO.N,RxD RSS*%
X95504000Y-76454000D03*
%TO.P,U1,13,R1IN*%
%TO.N,Net-(JP1-B)*%
X95504000Y-78994000D03*
%TO.P,U1,14,T1OUT*%
%TO.N,Net-(JP1-A)*%
X95504000Y-81534000D03*
%TO.P,U1,15,GND*%
%TO.N,GND*%
X95504000Y-84074000D03*
%TO.P,U1,16,VCC*%
%TO.N,+5V*%
X95504000Y-86614000D03*
%TD*%
D11*
%TO.P,J1,1,GND*%
%TO.N,GND*%
X116332000Y-41402000D03*
D22*
%TO.P,J1,2,PA3*%
%TO.N,/PA3*%
X116332000Y-43942000D03*
%TO.P,J1,3,PA2*%
%TO.N,/PA2*%
X116332000Y-46482000D03*
%TO.P,J1,4,PA1*%
%TO.N,/PA1*%
X116332000Y-49022000D03*
%TO.P,J1,5,PA4*%
%TO.N,/PA4*%
X116332000Y-51562000D03*
%TO.P,J1,6,PA5*%
%TO.N,/PA5*%
X116332000Y-54102000D03*
%TO.P,J1,7,PA6*%
%TO.N,/PA6*%
X116332000Y-56642000D03*
%TO.P,J1,8,PA7*%
%TO.N,/PA7*%
X116332000Y-59182000D03*
%TO.P,J1,9,PB0*%
%TO.N,/PB0*%
X116332000Y-61722000D03*
%TO.P,J1,10,PB1*%
%TO.N,/PB1*%
X116332000Y-64262000D03*
%TO.P,J1,11,PB2*%
%TO.N,/PB2*%
X116332000Y-66802000D03*
%TO.P,J1,12,PB3*%
%TO.N,/PB3*%
X116332000Y-69342000D03*
%TO.P,J1,13,PB4*%
%TO.N,/PB4*%
X116332000Y-71882000D03*
%TO.P,J1,14,PA0*%
%TO.N,/PA0*%
X116332000Y-74422000D03*
%TO.P,J1,15,PB7*%
%TO.N,/PB7*%
X116332000Y-76962000D03*
%TO.P,J1,16,PB5*%
%TO.N,/PB5*%
X116332000Y-79502000D03*
%TO.P,J1,17,KB_ROW_0*%
%TO.N,unconnected-(J1-KB_ROW_0-Pad17)*%
X116332000Y-82042000D03*
%TO.P,J1,18,KB_COL_F*%
%TO.N,unconnected-(J1-KB_COL_F-Pad18)*%
X116332000Y-84582000D03*
%TO.P,J1,19,KB_COL_B*%
%TO.N,unconnected-(J1-KB_COL_B-Pad19)*%
X116332000Y-87122000D03*
%TO.P,J1,20,KB_COL_E*%
%TO.N,unconnected-(J1-KB_COL_E-Pad20)*%
X116332000Y-89662000D03*
%TO.P,J1,21,KB_COL_A*%
%TO.N,KB_COL_A*%
X116332000Y-92202000D03*
%TO.P,J1,22,KB_COL_D*%
%TO.N,unconnected-(J1-KB_COL_D-Pad22)*%
X116332000Y-94742000D03*
%TO.P,J1,A,+5V*%
%TO.N,+5V*%
X118872000Y-41402000D03*
%TO.P,J1,B,K0*%
%TO.N,unconnected-(J1-K0-PadB)*%
X118872000Y-43942000D03*
%TO.P,J1,C,K1*%
%TO.N,unconnected-(J1-K1-PadC)*%
X118872000Y-46482000D03*
%TO.P,J1,D,K2*%
%TO.N,unconnected-(J1-K2-PadD)*%
X118872000Y-49022000D03*
%TO.P,J1,E,K3*%
%TO.N,unconnected-(J1-K3-PadE)*%
X118872000Y-51562000D03*
%TO.P,J1,F,K4*%
%TO.N,unconnected-(J1-K4-PadF)*%
X118872000Y-54102000D03*
%TO.P,J1,H,K5*%
%TO.N,unconnected-(J1-K5-PadH)*%
X118872000Y-56642000D03*
%TO.P,J1,J,K7*%
%TO.N,unconnected-(J1-K7-PadJ)*%
X118872000Y-59182000D03*
%TO.P,J1,K,DECODE_EN*%
%TO.N,Net-(J1-DECODE_EN)*%
X118872000Y-61722000D03*
%TO.P,J1,L,TOP_8K_SELECT*%
%TO.N,unconnected-(J1-TOP_8K_SELECT-PadL)*%
X118872000Y-64262000D03*
%TO.P,J1,M,TOP_8K_ENABLE*%
%TO.N,unconnected-(J1-TOP_8K_ENABLE-PadM)*%
X118872000Y-66802000D03*
%TO.P,J1,N*%
%TO.N,N/C*%
X118872000Y-69342000D03*
%TO.P,J1,P*%
X118872000Y-71882000D03*
%TO.P,J1,R,PB6*%
%TO.N,PB6*%
X118872000Y-74422000D03*
%TO.P,J1,S*%
%TO.N,N/C*%
X118872000Y-76962000D03*
%TO.P,J1,T,TTY_KYBD*%
%TO.N,RxD*%
X118872000Y-79502000D03*
%TO.P,J1,U,TTY_PTR*%
%TO.N,TxD*%
X118872000Y-82042000D03*
%TO.P,J1,V,KB_ROW_3*%
%TO.N,KB_ROW_3*%
X118872000Y-84582000D03*
%TO.P,J1,W,KB_COL_G*%
%TO.N,unconnected-(J1-KB_COL_G-PadW)*%
X118872000Y-87122000D03*
%TO.P,J1,X,KB_ROW_2*%
%TO.N,unconnected-(J1-KB_ROW_2-PadX)*%
X118872000Y-89662000D03*
%TO.P,J1,Y,KB_COL_C*%
%TO.N,unconnected-(J1-KB_COL_C-PadY)*%
X118872000Y-92202000D03*
%TO.P,J1,Z,KB_ROW_1*%
%TO.N,unconnected-(J1-KB_ROW_1-PadZ)*%
X118872000Y-94742000D03*
%TD*%
D10*
%TO.P,C2,1*%
%TO.N,Net-(U1-C2+)*%
X96306000Y-90424000D03*
%TO.P,C2,2*%
%TO.N,Net-(U1-C2-)*%
X101306000Y-90424000D03*
%TD*%
%TO.P,R1,1*%
%TO.N,+5V*%
X84074000Y-58420000D03*
D23*
%TO.P,R1,2*%
%TO.N,Net-(D1-A)*%
X84074000Y-45720000D03*
%TD*%
D11*
%TO.P,SW5.2,1,Pin_1*%
%TO.N,Net-(JP1-B)*%
X85090000Y-75200000D03*
D12*
%TO.P,SW5.2,2,Pin_2*%
X85090000Y-77740000D03*
%TO.P,SW5.2,3,Pin_3*%
%TO.N,Net-(JP2-C)*%
X85090000Y-80280000D03*
%TO.P,SW5.2,4,Pin_4*%
%TO.N,Net-(JP1-A)*%
X85090000Y-82820000D03*
%TO.P,SW5.2,5,Pin_5*%
X85090000Y-85360000D03*
%TD*%
D11*
%TO.P,J7,1,Pin_1*%
%TO.N,+5V*%
X110490000Y-29210000D03*
D12*
%TO.P,J7,2,Pin_2*%
%TO.N,Net-(J1-DECODE_EN)*%
X113030000Y-29210000D03*
%TD*%
D11*
%TO.P,SW5,1,Pin_1*%
%TO.N,Net-(JP1-A)*%
X82550000Y-77724000D03*
D12*
%TO.P,SW5,2,Pin_2*%
%TO.N,Net-(JP1-C)*%
X82550000Y-80264000D03*
%TO.P,SW5,3,Pin_3*%
%TO.N,Net-(JP1-B)*%
X82550000Y-82804000D03*
%TD*%
D11*
%TO.P,J4,1,Pin_1*%
%TO.N,GND*%
X110490000Y-101854000D03*
D22*
%TO.P,J4,2,Pin_2*%
%TO.N,+5V*%
X110490000Y-104394000D03*
%TO.P,J4,3,Pin_3*%
%TO.N,/PA0*%
X107950000Y-101854000D03*
%TO.P,J4,4,Pin_4*%
%TO.N,/PB0*%
X107950000Y-104394000D03*
%TO.P,J4,5,Pin_5*%
%TO.N,/PA1*%
X105410000Y-101854000D03*
%TO.P,J4,6,Pin_6*%
%TO.N,/PB1*%
X105410000Y-104394000D03*
%TO.P,J4,7,Pin_7*%
%TO.N,/PA2*%
X102870000Y-101854000D03*
%TO.P,J4,8,Pin_8*%
%TO.N,/PB2*%
X102870000Y-104394000D03*
%TO.P,J4,9,Pin_9*%
%TO.N,/PA3*%
X100330000Y-101854000D03*
%TO.P,J4,10,Pin_10*%
%TO.N,/PB3*%
X100330000Y-104394000D03*
%TO.P,J4,11,Pin_11*%
%TO.N,/PA4*%
X97790000Y-101854000D03*
%TO.P,J4,12,Pin_12*%
%TO.N,/PB4*%
X97790000Y-104394000D03*
%TO.P,J4,13,Pin_13*%
%TO.N,/PA5*%
X95250000Y-101854000D03*
%TO.P,J4,14,Pin_14*%
%TO.N,/PB5*%
X95250000Y-104394000D03*
%TO.P,J4,15,Pin_15*%
%TO.N,/PA6*%
X92710000Y-101854000D03*
%TO.P,J4,16,Pin_16*%
%TO.N,Net-(J4-Pin_16)*%
X92710000Y-104394000D03*
%TO.P,J4,17,Pin_17*%
%TO.N,/PA7*%
X90170000Y-101854000D03*
%TO.P,J4,18,Pin_18*%
%TO.N,/PB7*%
X90170000Y-104394000D03*
%TD*%
D24*
%TO.P,D1,1,K*%
%TO.N,GND*%
X85852000Y-31750000D03*
D25*
%TO.P,D1,2,A*%
%TO.N,Net-(D1-A)*%
X88392000Y-31750000D03*
%TD*%
D13*
%TO.P,SW1,1,1*%
%TO.N,/+5V Connector*%
X97282000Y-30734000D03*
D14*
%TO.P,SW1,2,3*%
%TO.N,+5V*%
X99822000Y-30734000D03*
%TO.P,SW1,3,4*%
%TO.N,+5V Serial-8*%
X102362000Y-30734000D03*
%TD*%
D26*
%TO.P,J5,0,PAD*%
%TO.N,GND*%
X71247000Y-69234000D03*
X71247000Y-94234000D03*
D27*
%TO.P,J5,1,1*%
%TO.N,unconnected-(J5-Pad1)*%
X71547000Y-76194000D03*
D10*
%TO.P,J5,2,2*%
%TO.N,Net-(JP2-C)*%
X71547000Y-78964000D03*
%TO.P,J5,3,3*%
%TO.N,Net-(JP1-C)*%
X71547000Y-81734000D03*
%TO.P,J5,4,4*%
%TO.N,unconnected-(J5-Pad4)*%
X71547000Y-84504000D03*
%TO.P,J5,5,5*%
%TO.N,GND*%
X71547000Y-87274000D03*
%TO.P,J5,6,6*%
%TO.N,unconnected-(J5-Pad6)*%
X68707000Y-77579000D03*
%TO.P,J5,7,7*%
%TO.N,unconnected-(J5-Pad7)*%
X68707000Y-80349000D03*
%TO.P,J5,8,8*%
%TO.N,unconnected-(J5-Pad8)*%
X68707000Y-83119000D03*
%TO.P,J5,9,9*%
%TO.N,unconnected-(J5-Pad9)*%
X68707000Y-85889000D03*
%TD*%
D11*
%TO.P,SW5.1,1,Pin_1*%
%TO.N,Net-(JP1-A)*%
X80010000Y-75184000D03*
D12*
%TO.P,SW5.1,2,Pin_2*%
X80010000Y-77724000D03*
%TO.P,SW5.1,3,Pin_3*%
%TO.N,Net-(JP1-C)*%
X80010000Y-80264000D03*
%TO.P,SW5.1,4,Pin_4*%
%TO.N,Net-(JP1-B)*%
X80010000Y-82804000D03*
%TO.P,SW5.1,5,Pin_5*%
X80010000Y-85344000D03*
%TD*%
D28*
%TO.N,/PA4*%
X106426000Y-53234600D03*
%TO.N,/PA5*%
X98129300Y-57912100D03*
%TO.N,/PA6*%
X106471000Y-98102600D03*
%TO.N,/PA7*%
X97654100Y-61503400D03*
%TO.N,/PB2*%
X104606400Y-94970200D03*
X114212100Y-96139700D03*
%TO.N,/PB4*%
X107162800Y-100433300D03*
X111509000Y-72300100D03*
%TO.N,/PA0*%
X110531100Y-74353200D03*
%TO.N,/PB7*%
X115314400Y-102892800D03*
%TO.N,/PB5*%
X104732500Y-80584300D03*
%TO.N,KB_COL_A*%
X98020500Y-85874400D03*
%TO.N,RxD*%
X99268200Y-77357500D03*
%TO.N,KB_ROW_3*%
X99645600Y-86085400D03*
%TO.N,+5V Serial-8*%
X94529600Y-59011400D03*
%TO.N,Net-(U1-C1-)*%
X98006400Y-90366400D03*
%TO.N,Net-(U1-VS-)*%
X90185100Y-72755500D03*
%TO.N,Net-(J4-Pin_16)*%
X108809400Y-99181400D03*
%TD*%
D29*
%TO.N,GND*%
X71247000Y-94234000D02*
X71247000Y-87574000D01*
X95504000Y-84074000D02*
X93852300Y-84074000D01*
X71374000Y-57404000D02*
X69596000Y-59182000D01*
X71547000Y-87274000D02*
X71397000Y-87424000D01*
X71247000Y-69234000D02*
X64770000Y-75711000D01*
X91694000Y-76414000D02*
X91694000Y-73279000D01*
X71397000Y-87424000D02*
X71247000Y-87574000D01*
X95504000Y-71374000D02*
X93852300Y-71374000D01*
X64770000Y-75711000D02*
X64770000Y-87757000D01*
X71374000Y-38608000D02*
X71374000Y-57404000D01*
X64770000Y-87757000D02*
X71247000Y-94234000D01*
X69596000Y-67583000D02*
X69596000Y-59182000D01*
X71247000Y-69234000D02*
X69596000Y-67583000D01*
X93852300Y-71374000D02*
X93852300Y-84074000D01*
D30*
%TO.N,Net-(D1-A)*%
X84074000Y-45720000D02*
X84074000Y-44593300D01*
X88392000Y-40275300D02*
X84074000Y-44593300D01*
X88392000Y-31750000D02*
X88392000Y-40275300D01*
%TO.N,/PA3*%
X100781700Y-100225600D02*
X100781700Y-94541400D01*
X115964300Y-45118700D02*
X116332000Y-45118700D01*
X106067800Y-74843200D02*
X105803200Y-74578600D01*
X100330000Y-100677300D02*
X100781700Y-100225600D01*
X100330000Y-101854000D02*
X100330000Y-100677300D01*
X105803200Y-74578600D02*
X105616100Y-74391500D01*
X105803200Y-74578600D02*
X105616100Y-74391500D01*
X106006700Y-82418000D02*
X106067800Y-82356900D01*
X106067800Y-82356900D02*
X106067800Y-74843200D01*
X105616100Y-74391500D02*
X105616100Y-55466900D01*
X105616100Y-89623800D02*
X106006700Y-89233200D01*
X105616100Y-55466900D02*
X115964300Y-45118700D01*
X105616100Y-89707000D02*
X105616100Y-89623800D01*
X106006700Y-89233200D02*
X106006700Y-82418000D01*
X116332000Y-43942000D02*
X116332000Y-45118700D01*
X100781700Y-94541400D02*
X105616100Y-89707000D01*
%TO.N,/PA2*%
X106519500Y-74656100D02*
X106254900Y-74391500D01*
X106067800Y-89968500D02*
X106067800Y-89810900D01*
X106519500Y-81741400D02*
X106814400Y-81446500D01*
X106814400Y-79721900D02*
X106549800Y-79457300D01*
X106254900Y-74391500D02*
X106067800Y-74204400D01*
X102870000Y-93166300D02*
X106067800Y-89968500D01*
X106458400Y-89420300D02*
X106458400Y-82605100D01*
X106814400Y-81446500D02*
X106814400Y-79721900D01*
X106067800Y-57555100D02*
X115964200Y-47658700D01*
X106458400Y-82605100D02*
X106519500Y-82544000D01*
X106519500Y-79427000D02*
X106519500Y-74656100D01*
X106519500Y-82544000D02*
X106519500Y-81741400D01*
X102870000Y-101854000D02*
X102870000Y-93166300D01*
X106549800Y-79457300D02*
X106519500Y-79427000D01*
X106549800Y-79457300D02*
X106519500Y-79427000D01*
X116332000Y-46482000D02*
X116332000Y-47658700D01*
X106067800Y-74204400D02*
X106067800Y-57555100D01*
X115964200Y-47658700D02*
X116332000Y-47658700D01*
X106254900Y-74391500D02*
X106067800Y-74204400D01*
X106067800Y-89810900D02*
X106458400Y-89420300D01*
%TO.N,/PA1*%
X107001500Y-79270200D02*
X106971200Y-79239900D01*
X106519500Y-74017300D02*
X106519500Y-59643500D01*
X106519500Y-90380800D02*
X106519500Y-89998000D01*
X106706600Y-74204400D02*
X106519500Y-74017300D01*
X105410000Y-101854000D02*
X105410000Y-100677300D01*
X106910100Y-89607400D02*
X106910100Y-82792200D01*
X106971200Y-79239900D02*
X106971200Y-74469000D01*
X105410000Y-100677300D02*
X105410000Y-91490300D01*
X106971200Y-74469000D02*
X106706600Y-74204400D01*
X106519500Y-59643500D02*
X115964300Y-50198700D01*
X115964300Y-50198700D02*
X116332000Y-50198700D01*
X106519500Y-89998000D02*
X106910100Y-89607400D01*
X107001500Y-79270200D02*
X106971200Y-79239900D01*
X107266100Y-82436200D02*
X107266100Y-79534800D01*
X116332000Y-49022000D02*
X116332000Y-50198700D01*
X105410000Y-91490300D02*
X106519500Y-90380800D01*
X107266100Y-79534800D02*
X107001500Y-79270200D01*
X106910100Y-82792200D02*
X107266100Y-82436200D01*
X106706600Y-74204400D02*
X106519500Y-74017300D01*
%TO.N,/PA4*%
X105164400Y-74689800D02*
X105164400Y-54496200D01*
X97790000Y-96894300D02*
X105164400Y-89519900D01*
X105164400Y-89436700D02*
X105555000Y-89046100D01*
X97790000Y-101854000D02*
X97790000Y-96894300D01*
X105555000Y-89046100D02*
X105555000Y-75080400D01*
X105555000Y-75080400D02*
X105164400Y-74689800D01*
X105164400Y-89519900D02*
X105164400Y-89436700D01*
X105164400Y-54496200D02*
X106426000Y-53234600D01*
%TO.N,/PA5*%
X98747200Y-85573400D02*
X98472200Y-85298400D01*
X98388400Y-58171200D02*
X98129300Y-57912100D01*
X98472200Y-64677500D02*
X98838600Y-64311100D01*
X98838600Y-64311100D02*
X98838600Y-60816100D01*
X95250000Y-100677300D02*
X95151000Y-100578300D01*
X98838600Y-60816100D02*
X98574000Y-60551500D01*
X98747200Y-86175400D02*
X98747200Y-85573400D01*
X98388400Y-60365900D02*
X98388400Y-58171200D01*
X98574000Y-60551500D02*
X98388400Y-60365900D01*
X95250000Y-101854000D02*
X95250000Y-100677300D01*
X98574000Y-60551500D02*
X98388400Y-60365900D01*
X95151000Y-100578300D02*
X95151000Y-89771600D01*
X95151000Y-89771600D02*
X98747200Y-86175400D01*
X98472200Y-85298400D02*
X98472200Y-64677500D01*
%TO.N,/PA6*%
X106471000Y-97805400D02*
X107196300Y-97080100D01*
X116332000Y-56642000D02*
X116332000Y-57818700D01*
X107196300Y-89960000D02*
X107717800Y-89438500D01*
X107717800Y-79347700D02*
X107453200Y-79083100D01*
X107422900Y-66360100D02*
X115964300Y-57818700D01*
X107717800Y-89438500D02*
X107717800Y-79347700D01*
X106471000Y-98102600D02*
X106471000Y-97805400D01*
X107422900Y-79052800D02*
X107422900Y-66360100D01*
X107453200Y-79083100D02*
X107422900Y-79052800D01*
X107453200Y-79083100D02*
X107422900Y-79052800D01*
X115964300Y-57818700D02*
X116332000Y-57818700D01*
X107196300Y-97080100D02*
X107196300Y-89960000D01*
%TO.N,/PA7*%
X97293800Y-85573500D02*
X97293800Y-86837200D01*
X97568800Y-61588700D02*
X97568800Y-85298500D01*
X97293800Y-86837200D02*
X90170000Y-93961000D01*
X97654100Y-61503400D02*
X97568800Y-61588700D01*
X90170000Y-93961000D02*
X90170000Y-101854000D01*
X97568800Y-85298500D02*
X97293800Y-85573500D01*
%TO.N,/PB0*%
X107950000Y-104394000D02*
X107950000Y-103217300D01*
X113485400Y-96374800D02*
X109126700Y-100733500D01*
X116332000Y-61722000D02*
X116332000Y-62898700D01*
X116332000Y-62898700D02*
X116029000Y-62898700D01*
X113485400Y-65442300D02*
X113485400Y-96374800D01*
X109126700Y-100733500D02*
X109126700Y-102408400D01*
X109126700Y-102408400D02*
X108317800Y-103217300D01*
X116029000Y-62898700D02*
X113485400Y-65442300D01*
X108317800Y-103217300D02*
X107950000Y-103217300D01*
%TO.N,/PB1*%
X108169500Y-79160600D02*
X107904900Y-78896000D01*
X106436100Y-100734200D02*
X106436100Y-99249500D01*
X106586700Y-102408400D02*
X106586700Y-100884800D01*
X117508700Y-61234500D02*
X117508700Y-62087600D01*
X108169500Y-96745700D02*
X108169500Y-79160600D01*
X105777800Y-103217300D02*
X106586700Y-102408400D01*
X106586700Y-100884800D02*
X106436100Y-100734200D01*
X120048700Y-64749500D02*
X119359500Y-65438700D01*
X116332000Y-64262000D02*
X116332000Y-65251600D01*
X105410000Y-104394000D02*
X105410000Y-103217300D01*
X119359500Y-63085300D02*
X120048700Y-63774500D01*
X107904900Y-78896000D02*
X107874600Y-78865700D01*
X115844500Y-60545300D02*
X116819500Y-60545300D01*
X107904900Y-78896000D02*
X107874600Y-78865700D01*
X119359500Y-65438700D02*
X116519100Y-65438700D01*
X107874600Y-68515200D02*
X115844500Y-60545300D01*
X116819500Y-60545300D02*
X117508700Y-61234500D01*
X107197800Y-97717400D02*
X108169500Y-96745700D01*
X117508700Y-62087600D02*
X118506400Y-63085300D01*
X116519100Y-65438700D02*
X116332000Y-65251600D01*
X118506400Y-63085300D02*
X119359500Y-63085300D01*
X106436100Y-99249500D02*
X107197800Y-98487800D01*
X120048700Y-63774500D02*
X120048700Y-64749500D01*
X107197800Y-98487800D02*
X107197800Y-97717400D01*
X107874600Y-78865700D02*
X107874600Y-68515200D01*
X105410000Y-103217300D02*
X105777800Y-103217300D01*
%TO.N,/PB2*%
X114212100Y-69730900D02*
X115964300Y-67978700D01*
X104046700Y-95529900D02*
X104046700Y-102408400D01*
X104606400Y-94970200D02*
X104046700Y-95529900D01*
X114212100Y-96139700D02*
X114212100Y-69730900D01*
X102870000Y-104394000D02*
X102870000Y-103217300D01*
X104046700Y-102408400D02*
X103237800Y-103217300D01*
X116332000Y-66802000D02*
X116332000Y-67978700D01*
X103237800Y-103217300D02*
X102870000Y-103217300D01*
X115964300Y-67978700D02*
X116332000Y-67978700D01*
%TO.N,/PB3*%
X114703600Y-71779300D02*
X115964200Y-70518700D01*
X101506700Y-104761700D02*
X102320700Y-105575700D01*
X111002300Y-105575700D02*
X114938800Y-101639200D01*
X101506700Y-104394000D02*
X101506700Y-104761700D01*
X116332000Y-69342000D02*
X116332000Y-70518700D01*
X114938800Y-101639200D02*
X114938800Y-95838700D01*
X102320700Y-105575700D02*
X111002300Y-105575700D01*
X115964200Y-70518700D02*
X116332000Y-70518700D01*
X100330000Y-104394000D02*
X101506700Y-104394000D01*
X114938800Y-95838700D02*
X114703600Y-95603500D01*
X114703600Y-95603500D02*
X114703600Y-71779300D01*
%TO.N,/PB4*%
X107649500Y-98129700D02*
X108621200Y-97158000D01*
X107162800Y-100433300D02*
X107054200Y-100324700D01*
X107054200Y-100324700D02*
X107054200Y-99270200D01*
X108356600Y-78708900D02*
X108326300Y-78678600D01*
X107054200Y-99270200D02*
X107649500Y-98674900D01*
X108326300Y-75482800D02*
X111509000Y-72300100D01*
X108621200Y-97158000D02*
X108621200Y-78973500D01*
X108621200Y-78973500D02*
X108356600Y-78708900D01*
X108356600Y-78708900D02*
X108326300Y-78678600D01*
X108326300Y-78678600D02*
X108326300Y-75482800D01*
X107649500Y-98674900D02*
X107649500Y-98129700D01*
%TO.N,/PA0*%
X107950000Y-100677300D02*
X107950000Y-100192800D01*
X107738900Y-99981700D02*
X107738900Y-99224300D01*
X107950000Y-101854000D02*
X107950000Y-100677300D01*
X109118600Y-75765700D02*
X110531100Y-74353200D01*
X107738900Y-99224300D02*
X109118600Y-97844600D01*
X107950000Y-100192800D02*
X107738900Y-99981700D01*
X109118600Y-97844600D02*
X109118600Y-75765700D01*
%TO.N,/PB7*%
X115390500Y-102816700D02*
X115390500Y-95651600D01*
X115155300Y-95416400D02*
X115155300Y-79012500D01*
X115155300Y-79012500D02*
X116029100Y-78138700D01*
X115390500Y-95651600D02*
X115155300Y-95416400D01*
X116029100Y-78138700D02*
X116332000Y-78138700D01*
X115314400Y-102892800D02*
X115390500Y-102816700D01*
X116332000Y-76962000D02*
X116332000Y-78138700D01*
%TO.N,/PB5*%
X105103300Y-88859000D02*
X105103300Y-80955100D01*
X96426700Y-102408400D02*
X96426700Y-97535600D01*
X95617800Y-103217300D02*
X96426700Y-102408400D01*
X96426700Y-97535600D02*
X105103300Y-88859000D01*
X95250000Y-104394000D02*
X95250000Y-103217300D01*
X105103300Y-80955100D02*
X104732500Y-80584300D01*
X95250000Y-103217300D02*
X95617800Y-103217300D01*
%TO.N,KB_COL_A*%
X98386900Y-61115900D02*
X97282000Y-60011000D01*
X98020500Y-64378100D02*
X98386900Y-64011700D01*
X97282000Y-60011000D02*
X97282000Y-44958000D01*
X97282000Y-44958000D02*
X96012000Y-43688000D01*
X98020500Y-85874400D02*
X98020500Y-64378100D01*
X98386900Y-64011700D02*
X98386900Y-61115900D01*
D29*
%TO.N,+5V*%
X111875800Y-27824200D02*
X113486500Y-27824200D01*
X113486500Y-27824200D02*
X118872000Y-33209700D01*
X118872000Y-33209700D02*
X118872000Y-41402000D01*
X95504000Y-86614000D02*
X93852300Y-86614000D01*
X93150600Y-37405400D02*
X99822000Y-30734000D01*
X93852300Y-86614000D02*
X93150600Y-85912300D01*
X110490000Y-29210000D02*
X111875800Y-27824200D01*
X93150600Y-85912300D02*
X93150600Y-58420000D01*
X93150600Y-58420000D02*
X93150600Y-37405400D01*
X84074000Y-58420000D02*
X93150600Y-58420000D01*
D30*
%TO.N,Net-(J1-DECODE_EN)*%
X117883100Y-60545300D02*
X118872000Y-60545300D01*
X117695000Y-43619000D02*
X117695000Y-60357200D01*
X118872000Y-61722000D02*
X118872000Y-60545300D01*
X117695000Y-60357200D02*
X117883100Y-60545300D01*
X117695000Y-60357200D02*
X117695000Y-60545300D01*
X117695000Y-43619000D02*
X117695000Y-33875000D01*
X117695000Y-33875000D02*
X113030000Y-29210000D01*
%TO.N,RxD*%
X99268200Y-77357500D02*
X99290300Y-77335400D01*
X99290300Y-55727300D02*
X98552000Y-54989000D01*
X99290300Y-77335400D02*
X99290300Y-55727300D01*
%TO.N,KB_ROW_3*%
X99994900Y-76874700D02*
X99742000Y-76621800D01*
X99742000Y-44878000D02*
X98552000Y-43688000D01*
X99742000Y-76621800D02*
X99742000Y-44878000D01*
X99994900Y-85736100D02*
X99994900Y-76874700D01*
X99645600Y-86085400D02*
X99994900Y-85736100D01*
%TO.N,RxD RSS*%
X96012000Y-54989000D02*
X96012000Y-60890500D01*
X96012000Y-60890500D02*
X97030700Y-61909200D01*
X95504000Y-76454000D02*
X97030700Y-76454000D01*
X97030700Y-61909200D02*
X97030700Y-76454000D01*
D29*
%TO.N,+5V Serial-8*%
X94529600Y-38566400D02*
X102362000Y-30734000D01*
X94529600Y-59011400D02*
X94529600Y-38566400D01*
D30*
%TO.N,Net-(U1-C1-)*%
X104651600Y-88671900D02*
X101174900Y-92148600D01*
X101174900Y-92148600D02*
X99788600Y-92148600D01*
X104651600Y-81534900D02*
X104651600Y-88671900D01*
X104650700Y-81534000D02*
X104651600Y-81534900D01*
X103124000Y-81534000D02*
X104650700Y-81534000D01*
X99788600Y-92148600D02*
X98006400Y-90366400D01*
%TO.N,Net-(U1-C2+)*%
X101597300Y-78994000D02*
X101145600Y-79445700D01*
X101597300Y-85184900D02*
X96358200Y-90424000D01*
X96358200Y-90424000D02*
X96306000Y-90424000D01*
X103124000Y-78994000D02*
X101597300Y-78994000D01*
X101597300Y-85179600D02*
X101597300Y-85184900D01*
X101145600Y-79445700D02*
X101145600Y-84727900D01*
X101145600Y-84727900D02*
X101597300Y-85179600D01*
%TO.N,Net-(U1-C2-)*%
X102131500Y-85289600D02*
X101934800Y-85486300D01*
X104650700Y-79530900D02*
X103774300Y-80407300D01*
X102131500Y-85075000D02*
X102131500Y-85289600D01*
X104650700Y-76454000D02*
X104650700Y-79530900D01*
X103774300Y-80407300D02*
X102257200Y-80407300D01*
X101934700Y-85486300D02*
X101596300Y-85824700D01*
X101596300Y-90133700D02*
X101306000Y-90424000D01*
X101934800Y-85486300D02*
X101934700Y-85486300D01*
X101596300Y-85824700D02*
X101596300Y-90133700D01*
X101597300Y-84540800D02*
X102131500Y-85075000D01*
X101597300Y-81067200D02*
X101597300Y-84540800D01*
X102257200Y-80407300D02*
X101597300Y-81067200D01*
X103124000Y-76454000D02*
X104650700Y-76454000D01*
%TO.N,Net-(U1-VS-)*%
X91694000Y-68279000D02*
X91694000Y-71246600D01*
X91694000Y-71246600D02*
X90185100Y-72755500D01*
%TO.N,Net-(J4-Pin_16)*%
X111506000Y-79502000D02*
X111506000Y-80678700D01*
X111506000Y-96484800D02*
X108809400Y-99181400D01*
X111506000Y-80678700D02*
X111506000Y-96484800D01*
%TO.N,Net-(JP2-C)*%
X76503000Y-74008000D02*
X71547000Y-78964000D01*
X85090000Y-80280000D02*
X86266000Y-79104000D01*
X86266000Y-79104000D02*
X86266000Y-74024000D01*
X86266000Y-74024000D02*
X86250000Y-74008000D01*
X86250000Y-74008000D02*
X76503000Y-74008000D01*
%TO.N,Net-(JP1-C)*%
X80010000Y-80264000D02*
X78540000Y-81734000D01*
X78540000Y-81734000D02*
X71547000Y-81734000D01*
%TO.N,Net-(JP1-A)*%
X83914000Y-81644000D02*
X83914000Y-79088000D01*
X82550000Y-77724000D02*
X80010000Y-77724000D01*
X85090000Y-82820000D02*
X83914000Y-81644000D01*
X83914000Y-79088000D02*
X82550000Y-77724000D01*
%TD*%
M02*
