M48
; DRILL file {KiCad 9.0.5} date 2025-11-16T18:57:08+0100
; FORMAT={-:-/ absolute / metric / decimal}
; #@! TF.CreationDate,2025-11-16T18:57:08+01:00
; #@! TF.GenerationSoftware,Kicad,Pcbnew,9.0.5
; #@! TF.FileFunction,Plated,1,2,PTH
FMAT,2
METRIC
; #@! TA.AperFunction,Plated,PTH,ViaDrill
T1C0.400
; #@! TA.AperFunction,Plated,PTH,ComponentDrill
T2C0.762
; #@! TA.AperFunction,Plated,PTH,ComponentDrill
T3C0.800
; #@! TA.AperFunction,Plated,PTH,ComponentDrill
T4C0.900
; #@! TA.AperFunction,Plated,PTH,ComponentDrill
T5C1.000
; #@! TA.AperFunction,Plated,PTH,ComponentDrill
T6C3.200
%
G90
G05
T1
X128.425Y-72.71
X133.224Y-143.641
X133.883Y-103.819
X134.305Y-112.4
X136.701Y-115.394
X136.892Y-102.937
X137.092Y-100.362
X137.386Y-111.458
X138.844Y-117.084
X144.551Y-140.626
X148.326Y-91.153
X150.114Y-88.138
X155.617Y-102.466
X163.028Y-102.99
X164.223Y-102.358
X166.732Y-99.236
X174.395Y-104.278
T2
X148.336Y-71.374
X150.876Y-71.374
X152.654Y-99.06
X152.654Y-111.252
X153.416Y-71.374
X155.194Y-99.06
X155.194Y-111.252
X157.734Y-99.06
X157.734Y-111.252
T3
X144.526Y-80.518
X150.876Y-125.175
X150.876Y-130.175
X150.876Y-133.31
X150.876Y-138.31
X150.876Y-140.97
X150.876Y-145.97
X154.686Y-125.73
X154.686Y-128.27
X154.686Y-130.81
X154.686Y-133.35
X154.686Y-135.89
X154.686Y-138.43
X154.686Y-140.97
X154.686Y-143.51
X155.488Y-147.32
X157.226Y-80.518
X160.488Y-147.32
X162.306Y-125.73
X162.306Y-128.27
X162.306Y-130.81
X162.306Y-133.35
X162.306Y-135.89
X162.306Y-138.43
X162.306Y-140.97
X162.306Y-143.51
T4
X129.54Y-70.612
X132.08Y-70.612
T5
X125.349Y-129.141
X125.349Y-131.911
X125.349Y-134.681
X125.349Y-137.451
X128.189Y-127.756
X128.189Y-130.526
X128.189Y-133.296
X128.189Y-136.066
X128.189Y-138.836
X130.302Y-88.138
X130.302Y-90.678
X130.302Y-94.742
X130.302Y-97.282
X130.302Y-99.822
X130.302Y-102.362
X130.302Y-104.902
X130.302Y-107.442
X130.302Y-109.982
X130.302Y-112.522
X130.302Y-115.062
X132.842Y-88.138
X132.842Y-90.678
X132.842Y-94.742
X132.842Y-97.282
X132.842Y-99.822
X132.842Y-102.362
X132.842Y-104.902
X132.842Y-107.442
X132.842Y-109.982
X132.842Y-112.522
X132.842Y-115.062
X136.906Y-128.016
X136.906Y-130.556
X136.906Y-133.096
X136.906Y-135.636
X136.906Y-138.176
X139.446Y-130.556
X139.446Y-133.096
X139.446Y-135.636
X141.986Y-128.032
X141.986Y-130.572
X141.986Y-133.112
X141.986Y-135.652
X141.986Y-138.192
X164.079Y-69.85
X166.619Y-69.85
X167.386Y-128.27
X167.386Y-130.81
X173.02Y-92.71
X173.02Y-95.25
X173.02Y-97.79
X173.02Y-100.33
X173.02Y-102.87
X173.02Y-105.41
X173.02Y-107.95
X173.02Y-110.49
X173.02Y-113.03
X173.02Y-115.57
X173.02Y-118.11
X173.02Y-120.65
X173.02Y-123.19
X173.02Y-125.73
X173.02Y-128.27
X173.02Y-130.81
X173.02Y-133.35
X173.02Y-135.89
X173.02Y-138.43
X173.02Y-140.97
X173.02Y-143.51
X173.02Y-146.05
X175.56Y-92.71
X175.56Y-95.25
X175.56Y-97.79
X175.56Y-100.33
X175.56Y-102.87
X175.56Y-105.41
X175.56Y-107.95
X175.56Y-110.49
X175.56Y-113.03
X175.56Y-115.57
X175.56Y-118.11
X175.56Y-120.65
X175.56Y-123.19
X175.56Y-125.73
X175.56Y-128.27
X175.56Y-130.81
X175.56Y-133.35
X175.56Y-135.89
X175.56Y-138.43
X175.56Y-140.97
X175.56Y-143.51
X175.56Y-146.05
T6
X127.889Y-120.796
X127.889Y-145.796
T5
X128.016Y-77.994G85X128.016Y-79.994
G05
X130.016Y-83.694G85X132.016Y-83.694
G05
X134.016Y-77.994G85X134.016Y-79.994
G05
M30
